<svg width="451" height="367" version="1.1" xmlns="http://www.w3.org/2000/svg" desc="Created with imagetracer.js version 1.2.6" ><path fill="rgb(240,244,249)" stroke="rgb(240,244,249)" stroke-width="1" opacity="1" d="M 219.5 71 L 221.5 72 L 222.5 71 L 229 71 L 229 133 L 180.5 133 L 165.5 138 L 151 148 L 140 163.5 L 136 174.5 L 135 179.5 L 135 197.5 Q 139.9 221.1 156.5 233 Q 166.3 241.2 181.5 244 L 229 244 L 229 272 L 296.5 272 L 296.5 273 L 167.5 272 L 165.5 273 L 149.5 270 L 136.5 264 L 120 249.5 L 111 233.5 L 107 218.5 L 107 180.5 L 109 173.5 L 109 167.5 L 114 150.5 L 122 133.5 L 132 119.5 L 132.5 94 L 133.5 116 L 145.5 103 Q 159.8 89.3 179.5 81 L 192.5 76 L 219.5 71 Z " /><path fill="rgb(240,244,249)" stroke="rgb(240,244,249)" stroke-width="1" opacity="1" d="M 236.5 71 L 242 71.5 L 236.5 72 L 236.5 71 Z " /><path fill="rgb(240,244,249)" stroke="rgb(240,244,249)" stroke-width="1" opacity="1" d="M 246.5 72 L 250 72.5 L 246.5 73 L 246.5 72 Z " /><path fill="rgb(240,244,249)" stroke="rgb(240,244,249)" stroke-width="1" opacity="1" d="M 257.5 74 L 260 74.5 L 257.5 75 L 257.5 74 Z " /><path fill="rgb(240,244,249)" stroke="rgb(240,244,249)" stroke-width="1" opacity="1" d="M 276.5 80 L 280 81.5 L 278.5 82 L 276.5 80 Z " /><path fill="rgb(240,244,249)" stroke="rgb(240,244,249)" stroke-width="1" opacity="1" d="M 121.5 85 L 124 85.5 L 121.5 86 L 121.5 85 Z " /><path fill="rgb(240,244,249)" stroke="rgb(240,244,249)" stroke-width="1" opacity="1" d="M 334.5 85 L 337 85.5 L 334.5 86 L 334.5 85 Z " /><path fill="rgb(240,244,249)" stroke="rgb(240,244,249)" stroke-width="1" opacity="1" d="M 289.5 86 L 293 88.5 L 291.5 88 L 289.5 86 Z " /><path fill="rgb(240,244,249)" stroke="rgb(240,244,249)" stroke-width="1" opacity="1" d="M 115.5 88 L 114.5 90 L 115.5 88 Z " /><path fill="rgb(240,244,249)" stroke="rgb(240,244,249)" stroke-width="1" opacity="1" d="M 342.5 88 L 343.5 90 L 342.5 88 Z " /><path fill="rgb(240,244,249)" stroke="rgb(240,244,249)" stroke-width="1" opacity="1" d="M 294.5 89 L 295.5 91 L 294.5 89 Z " /><path fill="rgb(240,244,249)" stroke="rgb(240,244,249)" stroke-width="1" opacity="1" d="M 113.5 91 L 113 92.5 L 112.5 95 L 112 92.5 L 113.5 91 Z " /><path fill="rgb(240,244,249)" stroke="rgb(240,244,249)" stroke-width="1" opacity="1" d="M 297.5 91 L 298.5 93 L 297.5 91 Z " /><path fill="rgb(240,244,249)" stroke="rgb(240,244,249)" stroke-width="1" opacity="1" d="M 300.5 93 L 301.5 95 L 300.5 93 Z " /><path fill="rgb(240,244,249)" stroke="rgb(240,244,249)" stroke-width="1" opacity="1" d="M 325.5 94 L 326 116.5 L 325 116.5 L 325.5 94 Z " /><path fill="rgb(240,244,249)" stroke="rgb(240,244,249)" stroke-width="1" opacity="1" d="M 303.5 95 L 305.5 98 L 303.5 95 Z " /><path fill="rgb(240,244,249)" stroke="rgb(240,244,249)" stroke-width="1" opacity="1" d="M 308.5 99 L 313.5 105 L 308.5 99 Z " /><path fill="rgb(240,244,249)" stroke="rgb(240,244,249)" stroke-width="1" opacity="1" d="M 318.5 109 L 323.5 115 L 318.5 109 Z " /><path fill="rgb(240,244,249)" stroke="rgb(240,244,249)" stroke-width="1" opacity="1" d="M 92.5 149 L 112 149.5 L 92.5 150 L 92.5 149 Z " /><path fill="rgb(240,244,249)" stroke="rgb(240,244,249)" stroke-width="1" opacity="1" d="M 346.5 149 L 366 149.5 L 346.5 150 L 346.5 149 Z " /><path fill="rgb(240,244,249)" stroke="rgb(240,244,249)" stroke-width="1" opacity="1" d="M 88.5 150 L 91 150.5 L 88.5 151 L 88.5 150 Z " /><path fill="rgb(240,244,249)" stroke="rgb(240,244,249)" stroke-width="1" opacity="1" d="M 80.5 154 L 74.5 161 L 80.5 154 Z " /><path fill="rgb(240,244,249)" stroke="rgb(240,244,249)" stroke-width="1" opacity="1" d="M 377.5 154 L 379.5 157 L 377.5 154 Z " /><path fill="rgb(240,244,249)" stroke="rgb(240,244,249)" stroke-width="1" opacity="1" d="M 382.5 159 L 383.5 161 L 382.5 159 Z " /><path fill="rgb(240,244,249)" stroke="rgb(240,244,249)" stroke-width="1" opacity="1" d="M 72.5 163 L 72 164.5 L 71.5 166 L 71 164.5 L 72.5 163 Z " /><path fill="rgb(240,244,249)" stroke="rgb(240,244,249)" stroke-width="1" opacity="1" d="M 72.5 231 L 73.5 233 L 72.5 231 Z " /><path fill="rgb(240,244,249)" stroke="rgb(240,244,249)" stroke-width="1" opacity="1" d="M 75.5 235 L 78.5 239 L 75.5 235 Z " /><path fill="rgb(240,244,249)" stroke="rgb(240,244,249)" stroke-width="1" opacity="1" d="M 85.5 242 L 89 243.5 L 86.5 244 L 85.5 242 Z " /><path fill="rgb(240,244,249)" stroke="rgb(240,244,249)" stroke-width="1" opacity="1" d="M 340.5 246 L 338.5 249 L 340.5 246 Z " /><path fill="rgb(240,244,249)" stroke="rgb(240,244,249)" stroke-width="1" opacity="1" d="M 336.5 251 L 330.5 258 L 336.5 251 Z " /><path fill="rgb(240,244,249)" stroke="rgb(240,244,249)" stroke-width="1" opacity="1" d="M 327.5 259 L 325.5 262 L 327.5 259 Z " /><path fill="rgb(240,244,249)" stroke="rgb(240,244,249)" stroke-width="1" opacity="1" d="M 321.5 263 L 320.5 265 L 321.5 263 Z " /><path fill="rgb(240,244,249)" stroke="rgb(240,244,249)" stroke-width="1" opacity="1" d="M 300.5 271 L 303 271.5 L 300.5 272 L 300.5 271 Z " /><path fill="rgb(240,244,249)" stroke="rgb(240,244,249)" stroke-width="1" opacity="1" d="M 368.5 280 L 369 281.5 L 367.5 284 L 367 282.5 L 368.5 280 Z " /><path fill="rgb(240,244,249)" stroke="rgb(240,244,249)" stroke-width="1" opacity="1" d="M 362.5 293 L 361.5 295 L 362.5 293 Z " /><path fill="rgb(240,244,249)" stroke="rgb(240,244,249)" stroke-width="1" opacity="1" d="M 251.5 295 L 254 295.5 L 251.5 296 L 251.5 295 Z " /><path fill="rgb(240,244,249)" stroke="rgb(240,244,249)" stroke-width="1" opacity="1" d="M 281.5 295 L 284 295.5 L 281.5 296 L 281.5 295 Z " /><path fill="rgb(240,244,249)" stroke="rgb(240,244,249)" stroke-width="1" opacity="1" d="M 381.5 301 L 380.5 303 L 381.5 301 Z " /><path fill="rgb(240,244,249)" stroke="rgb(240,244,249)" stroke-width="1" opacity="1" d="M 351.5 303 L 350.5 305 L 351.5 303 Z " /><path fill="rgb(240,244,249)" stroke="rgb(240,244,249)" stroke-width="1" opacity="1" d="M 379.5 304 L 378.5 306 L 379.5 304 Z " /><path fill="rgb(240,244,249)" stroke="rgb(240,244,249)" stroke-width="1" opacity="1" d="M 237.5 305 L 236.5 307 L 237.5 305 Z " /><path fill="rgb(240,244,249)" stroke="rgb(240,244,249)" stroke-width="1" opacity="1" d="M 376.5 308 L 369.5 316 L 376.5 308 Z " /><path fill="rgb(240,244,249)" stroke="rgb(240,244,249)" stroke-width="1" opacity="1" d="M 331.5 309 L 337 309.5 L 331.5 310 L 331.5 309 Z " /><path fill="rgb(240,244,249)" stroke="rgb(240,244,249)" stroke-width="1" opacity="1" d="M 365.5 318 L 364.5 320 L 365.5 318 Z " /><path fill="rgb(240,244,249)" stroke="rgb(240,244,249)" stroke-width="1" opacity="1" d="M 338.5 329 L 341 329.5 L 338.5 330 L 338.5 329 Z " /><path fill="rgb(240,244,249)" stroke="rgb(240,244,249)" stroke-width="1" opacity="1" d="M 237.5 333 L 238.5 335 L 237.5 333 Z " /><path fill="rgb(240,244,249)" stroke="rgb(240,244,249)" stroke-width="1" opacity="1" d="M 297.5 333 L 295.5 336 L 297.5 333 Z " /><path fill="rgb(240,244,249)" stroke="rgb(240,244,249)" stroke-width="1" opacity="1" d="M 293.5 337 L 291.5 340 L 293.5 337 Z " /><path fill="rgb(240,244,249)" stroke="rgb(240,244,249)" stroke-width="1" opacity="1" d="M 242.5 338 L 243.5 340 L 242.5 338 Z " /><path fill="rgb(240,244,249)" stroke="rgb(240,244,249)" stroke-width="1" opacity="1" d="M 252.5 343 L 282 343.5 L 252.5 344 L 252.5 343 Z " /><path fill="rgb(247,247,246)" stroke="rgb(247,247,246)" stroke-width="1" opacity="1" d="M 263.5 75 L 266 75.5 L 263.5 76 L 263.5 75 Z " /><path fill="rgb(247,247,246)" stroke="rgb(247,247,246)" stroke-width="1" opacity="1" d="M 124.5 85 L 127 86.5 L 125.5 86 L 124.5 85 Z " /><path fill="rgb(247,247,246)" stroke="rgb(247,247,246)" stroke-width="1" opacity="1" d="M 332.5 85 L 334 85.5 L 331.5 87 L 332.5 85 Z " /><path fill="rgb(247,247,246)" stroke="rgb(247,247,246)" stroke-width="1" opacity="1" d="M 295.5 89 L 296.5 91 L 295.5 89 Z " /><path fill="rgb(247,247,246)" stroke="rgb(247,247,246)" stroke-width="1" opacity="1" d="M 322.5 263 L 320.5 266 L 319 265.5 L 322.5 263 Z " /><path fill="rgb(247,247,246)" stroke="rgb(247,247,246)" stroke-width="1" opacity="1" d="M 357.5 298 L 356.5 300 L 357.5 298 Z " /><path fill="rgb(247,247,246)" stroke="rgb(247,247,246)" stroke-width="1" opacity="1" d="M 292.5 299 L 297.5 305 L 292.5 299 Z " /><path fill="rgb(247,247,246)" stroke="rgb(247,247,246)" stroke-width="1" opacity="1" d="M 240.5 301 L 237.5 305 L 240.5 301 Z " /><path fill="rgb(247,247,246)" stroke="rgb(247,247,246)" stroke-width="1" opacity="1" d="M 381.5 302 L 380.5 304 L 381.5 302 Z " /><path fill="rgb(247,247,246)" stroke="rgb(247,247,246)" stroke-width="1" opacity="1" d="M 298.5 306 L 300 308.5 L 299 308.5 L 298.5 306 Z " /><path fill="rgb(247,247,246)" stroke="rgb(247,247,246)" stroke-width="1" opacity="1" d="M 344.5 306 L 346 306.5 L 343.5 308 L 344.5 306 Z " /><path fill="rgb(247,247,246)" stroke="rgb(247,247,246)" stroke-width="1" opacity="1" d="M 301.5 309 L 331 309.5 L 301.5 310 L 301.5 309 Z " /><path fill="rgb(247,247,246)" stroke="rgb(247,247,246)" stroke-width="1" opacity="1" d="M 234.5 310 L 234 311.5 L 233.5 314 L 233 311.5 L 234.5 310 Z " /><path fill="rgb(247,247,246)" stroke="rgb(247,247,246)" stroke-width="1" opacity="1" d="M 368.5 316 L 366.5 319 L 368.5 316 Z " /><path fill="rgb(247,247,246)" stroke="rgb(247,247,246)" stroke-width="1" opacity="1" d="M 232.5 320 L 233 322.5 L 232 322.5 L 232.5 320 Z " /><path fill="rgb(247,247,246)" stroke="rgb(247,247,246)" stroke-width="1" opacity="1" d="M 351.5 326 L 350.5 328 L 348 327.5 L 351.5 326 Z " /><path fill="rgb(247,247,246)" stroke="rgb(247,247,246)" stroke-width="1" opacity="1" d="M 296.5 335 L 294.5 338 L 296.5 335 Z " /><path fill="rgb(247,247,246)" stroke="rgb(247,247,246)" stroke-width="1" opacity="1" d="M 241.5 338 L 242.5 340 L 241.5 338 Z " /><path fill="rgb(247,247,247)" stroke="rgb(247,247,247)" stroke-width="1" opacity="1" d="M 0 0 L 63.5 0 L 64.5 1 L 65.5 0 L 128.5 0 L 130.5 0 L 451 0 L 451 367 L 0.5 367 L 0 366.5 L 0 225.5 L 0 223.5 L 0 0 Z M 223 70 L 222 72 L 221 71 L 204 74 L 202 73 L 197 76 L 194 75 L 190 78 L 172 85 L 170 85 L 169 87 L 163 90 Q 161 93 160 91 L 159 93 L 146 103 L 134 116 L 133 94 L 132 91 L 126 85 Q 119 84 117 87 L 112 93 L 112 149 L 93 149 L 81 154 L 71 165 L 69 171 L 69 225 L 75 236 Q 81 242 91 245 L 117 245 L 120 250 Q 129 261 143 267 Q 145 266 144 269 L 146 268 L 154 271 L 165 272 L 166 273 L 168 272 L 292 273 L 293 274 L 310 270 L 312 270 L 318 266 L 321 266 L 327 261 Q 329 262 328 260 L 335 255 L 337 251 L 343 245 L 368 245 L 370 244 L 370 273 L 369 275 L 369 279 L 365 289 Q 366 291 363 290 L 363 293 L 360 297 L 350 305 L 345 306 L 340 309 L 300 309 L 298 305 L 293 299 L 284 295 L 251 295 L 243 299 L 237 305 L 233 312 Q 234 316 232 318 Q 232 328 237 334 Q 236 336 239 335 L 241 339 L 253 344 L 284 344 L 295 338 L 298 333 L 301 330 L 342 330 L 347 329 Q 360 325 370 316 Q 372 317 371 315 L 376 311 L 378 308 Q 377 305 380 306 L 386 295 L 389 284 L 389 170 L 381 156 L 373 151 L 366 149 L 346 149 L 346 93 L 345 91 L 339 85 Q 331 84 329 88 L 325 94 L 325 116 L 322 111 L 313 104 Q 314 101 311 102 L 311 100 L 308 99 L 296 89 L 290 86 Q 287 87 288 85 L 287 85 L 278 80 L 276 80 L 266 75 L 258 74 L 256 74 L 249 71 L 247 72 L 245 72 L 240 71 L 235 70 L 233 71 L 224 71 L 223 70 Z " /><path fill="rgb(214,226,239)" stroke="rgb(214,226,239)" stroke-width="1" opacity="1" d="M 229 71 L 252.5 73 L 273.5 79 Q 299.8 89.7 318 108.5 Q 336.4 127.6 346 155.5 L 351 178.5 L 351 220.5 L 348 231.5 L 342 244.5 L 328.5 259 Q 317.2 268.7 299.5 272 L 229 272 L 229 244 L 181.5 244 Q 157.9 239.1 146 222.5 L 136 202.5 L 135 197.5 L 135 179.5 L 140 163.5 L 151 148 L 165.5 138 L 180.5 133 L 229 133 L 229 71 Z M 229 133 L 229 151 L 185 151 Q 174 153 168 159 L 165 161 Q 156 169 153 183 L 153 195 L 159 210 Q 167 223 186 226 L 229 226 L 229 244 L 277 244 Q 292 241 302 233 Q 318 221 323 198 L 323 180 L 322 175 Q 318 159 308 150 Q 297 137 278 133 L 229 133 Z " /><path fill="rgb(214,226,239)" stroke="rgb(214,226,239)" stroke-width="1" opacity="1" d="M 112.5 95 L 113 149.5 L 112 149.5 L 112.5 95 Z " /><path fill="rgb(214,226,239)" stroke="rgb(214,226,239)" stroke-width="1" opacity="1" d="M 345.5 95 L 346 149.5 L 345 149.5 L 345.5 95 Z " /><path fill="rgb(214,226,239)" stroke="rgb(214,226,239)" stroke-width="1" opacity="1" d="M 131.5 119 L 130.5 121 L 131.5 119 Z " /><path fill="rgb(214,226,239)" stroke="rgb(214,226,239)" stroke-width="1" opacity="1" d="M 81.5 154 L 80.5 156 L 81.5 154 Z " /><path fill="rgb(214,226,239)" stroke="rgb(214,226,239)" stroke-width="1" opacity="1" d="M 380.5 157 L 381.5 159 L 380.5 157 Z " /><path fill="rgb(214,226,239)" stroke="rgb(214,226,239)" stroke-width="1" opacity="1" d="M 108.5 171 L 109 173.5 L 108 173.5 L 108.5 171 Z " /><path fill="rgb(214,226,239)" stroke="rgb(214,226,239)" stroke-width="1" opacity="1" d="M 74.5 233 L 75.5 235 L 74.5 233 Z " /><path fill="rgb(214,226,239)" stroke="rgb(214,226,239)" stroke-width="1" opacity="1" d="M 79.5 238 L 80.5 240 L 79.5 238 Z " /><path fill="rgb(214,226,239)" stroke="rgb(214,226,239)" stroke-width="1" opacity="1" d="M 115.5 242 L 117 244.5 L 116 244.5 L 115.5 242 Z " /><path fill="rgb(214,226,239)" stroke="rgb(214,226,239)" stroke-width="1" opacity="1" d="M 92.5 244 L 95 244.5 L 92.5 245 L 92.5 244 Z " /><path fill="rgb(214,226,239)" stroke="rgb(214,226,239)" stroke-width="1" opacity="1" d="M 369.5 275 L 370 277.5 L 369 277.5 L 369.5 275 Z " /><path fill="rgb(214,226,239)" stroke="rgb(214,226,239)" stroke-width="1" opacity="1" d="M 254.5 295 L 281 295.5 L 254.5 296 L 254.5 295 Z " /><path fill="rgb(214,226,239)" stroke="rgb(214,226,239)" stroke-width="1" opacity="1" d="M 360.5 296 L 359.5 298 L 360.5 296 Z " /><path fill="rgb(214,226,239)" stroke="rgb(214,226,239)" stroke-width="1" opacity="1" d="M 357.5 299 L 355.5 302 L 357.5 299 Z " /><path fill="rgb(214,226,239)" stroke="rgb(214,226,239)" stroke-width="1" opacity="1" d="M 292.5 300 L 296.5 305 L 292.5 300 Z " /><path fill="rgb(214,226,239)" stroke="rgb(214,226,239)" stroke-width="1" opacity="1" d="M 239.5 303 L 238.5 305 L 239.5 303 Z " /><path fill="rgb(214,226,239)" stroke="rgb(214,226,239)" stroke-width="1" opacity="1" d="M 341.5 328 L 344 328.5 L 341.5 329 L 341.5 328 Z " /><path fill="rgb(214,226,239)" stroke="rgb(214,226,239)" stroke-width="1" opacity="1" d="M 239.5 335 L 241.5 338 L 239.5 335 Z " /><path fill="rgb(159,181,219)" stroke="rgb(159,181,219)" stroke-width="1" opacity="1" d="M 120.5 86 L 125 86.5 L 120.5 87 L 120.5 86 Z " /><path fill="rgb(159,181,219)" stroke="rgb(159,181,219)" stroke-width="1" opacity="1" d="M 333.5 86 L 338 86.5 L 333.5 87 L 333.5 86 Z " /><path fill="rgb(159,181,219)" stroke="rgb(159,181,219)" stroke-width="1" opacity="1" d="M 116.5 88 L 114.5 91 L 116.5 88 Z " /><path fill="rgb(159,181,219)" stroke="rgb(159,181,219)" stroke-width="1" opacity="1" d="M 128.5 88 L 129.5 90 L 128.5 88 Z " /><path fill="rgb(159,181,219)" stroke="rgb(159,181,219)" stroke-width="1" opacity="1" d="M 329.5 88 L 328.5 90 L 329.5 88 Z " /><path fill="rgb(159,181,219)" stroke="rgb(159,181,219)" stroke-width="1" opacity="1" d="M 341.5 88 L 343.5 91 L 341.5 88 Z " /><path fill="rgb(159,181,219)" stroke="rgb(159,181,219)" stroke-width="1" opacity="1" d="M 229 133 L 277.5 133 Q 296.9 137.1 308 149.5 Q 317.9 159.1 322 174.5 L 323 179.5 L 323 197.5 Q 318.1 221.1 301.5 233 Q 291.7 241.2 276.5 244 L 229 244 L 229 226 L 272.5 226 Q 289.6 222.6 298 210.5 L 304 198.5 L 305 183.5 Q 301.6 165.4 288.5 157 L 273.5 151 L 229 151 L 229 133 Z " /><path fill="rgb(159,181,219)" stroke="rgb(159,181,219)" stroke-width="1" opacity="1" d="M 336.5 134 L 337.5 136 L 336.5 134 Z " /><path fill="rgb(159,181,219)" stroke="rgb(159,181,219)" stroke-width="1" opacity="1" d="M 92.5 150 L 95 150.5 L 92.5 151 L 92.5 150 Z " /><path fill="rgb(159,181,219)" stroke="rgb(159,181,219)" stroke-width="1" opacity="1" d="M 374.5 153 L 375.5 155 L 374.5 153 Z " /><path fill="rgb(159,181,219)" stroke="rgb(159,181,219)" stroke-width="1" opacity="1" d="M 377.5 155 L 378.5 157 L 377.5 155 Z " /><path fill="rgb(159,181,219)" stroke="rgb(159,181,219)" stroke-width="1" opacity="1" d="M 79.5 156 L 78.5 158 L 79.5 156 Z " /><path fill="rgb(159,181,219)" stroke="rgb(159,181,219)" stroke-width="1" opacity="1" d="M 169.5 157 L 168.5 159 L 169.5 157 Z " /><path fill="rgb(159,181,219)" stroke="rgb(159,181,219)" stroke-width="1" opacity="1" d="M 76.5 159 L 74.5 162 L 76.5 159 Z " /><path fill="rgb(159,181,219)" stroke="rgb(159,181,219)" stroke-width="1" opacity="1" d="M 381.5 159 L 383.5 162 L 381.5 159 Z " /><path fill="rgb(159,181,219)" stroke="rgb(159,181,219)" stroke-width="1" opacity="1" d="M 164.5 161 L 163.5 163 L 164.5 161 Z " /><path fill="rgb(159,181,219)" stroke="rgb(159,181,219)" stroke-width="1" opacity="1" d="M 160.5 166 L 159.5 168 L 160.5 166 Z " /><path fill="rgb(159,181,219)" stroke="rgb(159,181,219)" stroke-width="1" opacity="1" d="M 349.5 169 L 350 171.5 L 349 171.5 L 349.5 169 Z " /><path fill="rgb(159,181,219)" stroke="rgb(159,181,219)" stroke-width="1" opacity="1" d="M 157.5 171 L 157 172.5 L 156.5 174 L 156 172.5 L 157.5 171 Z " /><path fill="rgb(159,181,219)" stroke="rgb(159,181,219)" stroke-width="1" opacity="1" d="M 388.5 172 L 389 174.5 L 388 174.5 L 388.5 172 Z " /><path fill="rgb(159,181,219)" stroke="rgb(159,181,219)" stroke-width="1" opacity="1" d="M 107.5 175 L 108 177.5 L 107 177.5 L 107.5 175 Z " /><path fill="rgb(159,181,219)" stroke="rgb(159,181,219)" stroke-width="1" opacity="1" d="M 153.5 182 L 154 184.5 L 153 184.5 L 153.5 182 Z " /><path fill="rgb(159,181,219)" stroke="rgb(159,181,219)" stroke-width="1" opacity="1" d="M 106.5 183 L 107 217.5 L 106 217.5 L 106.5 183 Z " /><path fill="rgb(159,181,219)" stroke="rgb(159,181,219)" stroke-width="1" opacity="1" d="M 351.5 183 L 352 216.5 L 351 216.5 L 351.5 183 Z " /><path fill="rgb(159,181,219)" stroke="rgb(159,181,219)" stroke-width="1" opacity="1" d="M 153.5 192 L 154 194.5 L 153 194.5 L 153.5 192 Z " /><path fill="rgb(159,181,219)" stroke="rgb(159,181,219)" stroke-width="1" opacity="1" d="M 159.5 209 L 160.5 211 L 159.5 209 Z " /><path fill="rgb(159,181,219)" stroke="rgb(159,181,219)" stroke-width="1" opacity="1" d="M 168.5 218 L 169.5 220 L 168.5 218 Z " /><path fill="rgb(159,181,219)" stroke="rgb(159,181,219)" stroke-width="1" opacity="1" d="M 185.5 225 L 188 225.5 L 185.5 226 L 185.5 225 Z " /><path fill="rgb(159,181,219)" stroke="rgb(159,181,219)" stroke-width="1" opacity="1" d="M 73.5 231 L 74.5 233 L 73.5 231 Z " /><path fill="rgb(159,181,219)" stroke="rgb(159,181,219)" stroke-width="1" opacity="1" d="M 76.5 235 L 78.5 238 L 76.5 235 Z " /><path fill="rgb(159,181,219)" stroke="rgb(159,181,219)" stroke-width="1" opacity="1" d="M 95.5 244 L 116 244.5 L 95.5 245 L 95.5 244 Z " /><path fill="rgb(159,181,219)" stroke="rgb(159,181,219)" stroke-width="1" opacity="1" d="M 342.5 244 L 364 244.5 L 342.5 245 L 342.5 244 Z " /><path fill="rgb(159,181,219)" stroke="rgb(159,181,219)" stroke-width="1" opacity="1" d="M 362.5 294 L 361.5 296 L 362.5 294 Z " /><path fill="rgb(159,181,219)" stroke="rgb(159,181,219)" stroke-width="1" opacity="1" d="M 241.5 301 L 240.5 303 L 241.5 301 Z " /><path fill="rgb(159,181,219)" stroke="rgb(159,181,219)" stroke-width="1" opacity="1" d="M 376.5 307 L 373.5 311 L 376.5 307 Z " /><path fill="rgb(159,181,219)" stroke="rgb(159,181,219)" stroke-width="1" opacity="1" d="M 300.5 310 L 334 310.5 L 300.5 311 L 300.5 310 Z " /><path fill="rgb(159,181,219)" stroke="rgb(159,181,219)" stroke-width="1" opacity="1" d="M 370.5 313 L 367.5 317 L 370.5 313 Z " /><path fill="rgb(159,181,219)" stroke="rgb(159,181,219)" stroke-width="1" opacity="1" d="M 233.5 317 L 234 321.5 L 233 321.5 L 233.5 317 Z " /><path fill="rgb(159,181,219)" stroke="rgb(159,181,219)" stroke-width="1" opacity="1" d="M 364.5 318 L 363.5 320 L 364.5 318 Z " /><path fill="rgb(159,181,219)" stroke="rgb(159,181,219)" stroke-width="1" opacity="1" d="M 299.5 329 L 336 329.5 L 299.5 330 L 298.5 331 L 299.5 329 Z " /><path fill="rgb(2,67,157)" stroke="rgb(2,67,157)" stroke-width="1" opacity="1" d="M 119.5 87 Q 127.8 85.7 130 90.5 L 131 92.5 L 131 118.5 Q 120.1 132.1 113.5 150 L 113 95.5 L 117.5 88 L 119.5 87 Z " /><path fill="rgb(2,67,157)" stroke="rgb(2,67,157)" stroke-width="1" opacity="1" d="M 330.5 88 L 328.5 91 L 330.5 88 Z " /><path fill="rgb(2,67,157)" stroke="rgb(2,67,157)" stroke-width="1" opacity="1" d="M 340.5 88 L 341.5 90 L 340.5 88 Z " /><path fill="rgb(2,67,157)" stroke="rgb(2,67,157)" stroke-width="1" opacity="1" d="M 344.5 94 L 345 149.5 L 344 149.5 L 343 147.5 L 344 146.5 L 344.5 94 Z " /><path fill="rgb(2,67,157)" stroke="rgb(2,67,157)" stroke-width="1" opacity="1" d="M 327.5 119 L 328.5 121 L 327.5 119 Z " /><path fill="rgb(2,67,157)" stroke="rgb(2,67,157)" stroke-width="1" opacity="1" d="M 330.5 123 L 331.5 125 L 330.5 123 Z " /><path fill="rgb(2,67,157)" stroke="rgb(2,67,157)" stroke-width="1" opacity="1" d="M 229.5 151 L 272 151.5 L 229 152 L 229 225 L 270.5 225 L 270.5 226 L 183.5 225 Q 167.6 221.4 160 209.5 L 154 195.5 L 154 181.5 Q 157 168.5 165.5 161 Q 172 154.5 182.5 152 L 228.5 152 L 229.5 151 Z M 189 176 L 183 184 Q 181 193 185 198 L 190 201 L 198 200 L 202 195 Q 204 183 200 178 L 197 176 L 189 176 Z " /><path fill="rgb(2,67,157)" stroke="rgb(2,67,157)" stroke-width="1" opacity="1" d="M 289.5 158 L 292.5 162 L 289.5 158 Z " /><path fill="rgb(2,67,157)" stroke="rgb(2,67,157)" stroke-width="1" opacity="1" d="M 294.5 163 L 296.5 166 L 294.5 163 Z " /><path fill="rgb(2,67,157)" stroke="rgb(2,67,157)" stroke-width="1" opacity="1" d="M 264.5 175 L 267 175.5 L 264.5 176 L 264.5 175 Z " /><path fill="rgb(2,67,157)" stroke="rgb(2,67,157)" stroke-width="1" opacity="1" d="M 259.5 177 L 257.5 180 L 259.5 177 Z " /><path fill="rgb(2,67,157)" stroke="rgb(2,67,157)" stroke-width="1" opacity="1" d="M 304.5 185 L 305 191.5 L 304 191.5 L 304.5 185 Z " /><path fill="rgb(2,67,157)" stroke="rgb(2,67,157)" stroke-width="1" opacity="1" d="M 274.5 192 L 275 194.5 L 274 194.5 L 274.5 192 Z " /><path fill="rgb(2,67,157)" stroke="rgb(2,67,157)" stroke-width="1" opacity="1" d="M 258.5 198 L 259.5 200 L 258.5 198 Z " /><path fill="rgb(2,67,157)" stroke="rgb(2,67,157)" stroke-width="1" opacity="1" d="M 270.5 199 L 269.5 201 L 268 200.5 L 270.5 199 Z " /><path fill="rgb(2,67,157)" stroke="rgb(2,67,157)" stroke-width="1" opacity="1" d="M 264.5 201 L 267 201.5 L 264.5 202 L 264.5 201 Z " /><path fill="rgb(2,67,157)" stroke="rgb(2,67,157)" stroke-width="1" opacity="1" d="M 295.5 212 L 290.5 218 L 295.5 212 Z " /><path fill="rgb(2,67,157)" stroke="rgb(2,67,157)" stroke-width="1" opacity="1" d="M 388.5 221 L 389 275.5 L 386 290.5 L 381 300.5 L 366.5 317 Q 355.7 326.2 338.5 329 L 299.5 329 L 298.5 330 L 300 327.5 Q 302.2 322.8 301 314.5 L 300 311 L 335.5 311 L 340.5 310 Q 352.7 306.7 360 298.5 L 362 295.5 Q 367.8 289.8 370 280.5 L 370 243.5 L 371.5 242 Q 380.1 239.6 384 232.5 Q 387.8 228.3 388.5 221 Z " /><path fill="rgb(2,67,157)" stroke="rgb(2,67,157)" stroke-width="1" opacity="1" d="M 253.5 296 L 282 296.5 L 253.5 297 L 253.5 296 Z " /><path fill="rgb(2,67,157)" stroke="rgb(2,67,157)" stroke-width="1" opacity="1" d="M 242.5 301 L 239.5 305 L 242.5 301 Z " /><path fill="rgb(2,67,157)" stroke="rgb(2,67,157)" stroke-width="1" opacity="1" d="M 292.5 301 L 295.5 305 L 292.5 301 Z " /><path fill="rgb(2,67,157)" stroke="rgb(2,67,157)" stroke-width="1" opacity="1" d="M 297.5 331 L 296.5 333 L 297.5 331 Z " /><path fill="rgb(2,67,157)" stroke="rgb(2,67,157)" stroke-width="1" opacity="1" d="M 256.5 342 L 278 342.5 L 256.5 343 L 256.5 342 Z " /><path fill="rgb(0,52,123)" stroke="rgb(0,52,123)" stroke-width="1" opacity="1" d="M 333.5 87 L 337.5 87 L 343 90 L 344 92.5 L 344 146.5 L 343 146.5 Q 337.5 130 327 118.5 L 327 92.5 L 333.5 87 Z " /><path fill="rgb(0,52,123)" stroke="rgb(0,52,123)" stroke-width="1" opacity="1" d="M 229 152 L 275.5 152 L 285.5 156 L 294 162 L 300 170.5 L 303 177.5 Q 305.4 184.6 304 195.5 Q 300.2 211.2 288.5 219 Q 282.5 223.5 273.5 225 L 229 225 L 229 152 Z M 265 175 L 260 177 L 256 182 L 256 196 L 258 199 L 265 202 L 270 201 L 275 195 L 275 183 L 272 177 L 265 175 Z " /><path fill="rgb(0,52,123)" stroke="rgb(0,52,123)" stroke-width="1" opacity="1" d="M 250.5 297 L 284.5 297 Q 292.6 299.9 297 306.5 L 301 314.5 L 301 324.5 Q 297.9 332.9 291.5 338 L 283.5 342 L 251.5 342 L 244.5 339 L 238 332.5 L 234 322.5 L 234 315.5 Q 236.3 304.8 244.5 300 L 250.5 297 Z " /><path fill="rgb(76,119,235)" stroke="rgb(76,119,235)" stroke-width="1" opacity="1" d="M 131.5 94 L 132 118.5 L 130 119.5 L 131 118.5 L 131.5 94 Z " /><path fill="rgb(76,119,235)" stroke="rgb(76,119,235)" stroke-width="1" opacity="1" d="M 326.5 94 L 327 118.5 L 326 118.5 L 326.5 94 Z " /><path fill="rgb(76,119,235)" stroke="rgb(76,119,235)" stroke-width="1" opacity="1" d="M 95.5 150 L 114 150.5 L 109 164.5 L 107 182.5 L 106 183.5 L 106 217.5 L 109 230.5 L 116 243.5 L 91.5 244 Q 80.6 241.4 75 233.5 L 70 224.5 L 69 219.5 L 69 175.5 L 72 165.5 L 77 158 L 84.5 153 L 95.5 150 Z " /><path fill="rgb(76,119,235)" stroke="rgb(76,119,235)" stroke-width="1" opacity="1" d="M 344.5 150 L 363.5 150 L 368.5 151 L 381 158.5 L 387 167.5 L 389 175.5 L 389 220.5 Q 386.4 233.8 376.5 240 L 366.5 244 L 342.5 244 L 343 242.5 L 347 235.5 L 352 216.5 L 352 183.5 L 351 182.5 L 350 169.5 L 344.5 150 Z " /><path fill="rgb(76,119,235)" stroke="rgb(76,119,235)" stroke-width="1" opacity="1" d="M 186.5 151 L 229 151.5 L 186.5 152 L 186.5 151 Z " /><path fill="rgb(76,119,235)" stroke="rgb(76,119,235)" stroke-width="1" opacity="1" d="M 167.5 159 L 166.5 161 L 167.5 159 Z " /><path fill="rgb(76,119,235)" stroke="rgb(76,119,235)" stroke-width="1" opacity="1" d="M 162.5 164 L 161.5 166 L 162.5 164 Z " /><path fill="rgb(76,119,235)" stroke="rgb(76,119,235)" stroke-width="1" opacity="1" d="M 297.5 166 L 298.5 168 L 297.5 166 Z " /><path fill="rgb(76,119,235)" stroke="rgb(76,119,235)" stroke-width="1" opacity="1" d="M 188.5 176 L 196.5 176 L 200 178 Q 203.7 182.9 202 194.5 L 197.5 200 L 189.5 201 L 185 197.5 Q 181.3 193.2 183 183.5 L 188.5 176 Z " /><path fill="rgb(76,119,235)" stroke="rgb(76,119,235)" stroke-width="1" opacity="1" d="M 262.5 176 Q 270.8 174.7 273 179.5 Q 276 183.5 275 191.5 L 271.5 199 Q 268.8 201.8 262.5 201 L 257 196.5 Q 254.8 191.8 256 183.5 L 260.5 177 L 262.5 176 Z " /><path fill="rgb(76,119,235)" stroke="rgb(76,119,235)" stroke-width="1" opacity="1" d="M 153.5 185 L 154 191.5 L 153 191.5 L 153.5 185 Z " /><path fill="rgb(76,119,235)" stroke="rgb(76,119,235)" stroke-width="1" opacity="1" d="M 297.5 210 L 296.5 212 L 297.5 210 Z " /><path fill="rgb(76,119,235)" stroke="rgb(76,119,235)" stroke-width="1" opacity="1" d="M 161.5 211 L 167.5 218 L 161.5 211 Z " /><path fill="rgb(76,119,235)" stroke="rgb(76,119,235)" stroke-width="1" opacity="1" d="M 188.5 225 L 229 225.5 L 188.5 226 L 188.5 225 Z " /><path fill="rgb(76,119,235)" stroke="rgb(76,119,235)" stroke-width="1" opacity="1" d="M 388.5 276 L 389 278.5 L 388 278.5 L 388.5 276 Z " /><path fill="rgb(76,119,235)" stroke="rgb(76,119,235)" stroke-width="1" opacity="1" d="M 359.5 298 L 358.5 300 L 359.5 298 Z " /><path fill="rgb(76,119,235)" stroke="rgb(76,119,235)" stroke-width="1" opacity="1" d="M 377.5 305 L 376.5 307 L 377.5 305 Z " /><path fill="rgb(76,119,235)" stroke="rgb(76,119,235)" stroke-width="1" opacity="1" d="M 372.5 311 L 371.5 313 L 372.5 311 Z " /><path fill="rgb(76,119,235)" stroke="rgb(76,119,235)" stroke-width="1" opacity="1" d="M 238.5 333 L 239.5 335 L 238.5 333 Z " /><path fill="rgb(76,119,235)" stroke="rgb(76,119,235)" stroke-width="1" opacity="1" d="M 295.5 334 L 292.5 338 L 295.5 334 Z " /><path fill="rgb(76,119,235)" stroke="rgb(76,119,235)" stroke-width="1" opacity="1" d="M 241.5 336 L 242.5 338 L 241.5 336 Z " /><path fill="rgb(76,119,235)" stroke="rgb(76,119,235)" stroke-width="1" opacity="1" d="M 278.5 342 L 281 342.5 L 278.5 343 L 278.5 342 Z " /></svg>